<svg id="ic_back" xmlns="http://www.w3.org/2000/svg" xmlns:xlink="http://www.w3.org/1999/xlink" width="24" height="24" viewBox="0 0 24 24">
  <defs>
    <clipPath id="clip-path">
      <path id="Path" d="M2.822,8.571,9.008,2.09a1.266,1.266,0,0,0,0-1.732,1.132,1.132,0,0,0-1.653,0L.342,7.706a1.266,1.266,0,0,0,0,1.732l7.013,7.347a1.132,1.132,0,0,0,1.653,0,1.266,1.266,0,0,0,0-1.732Z" transform="translate(0)"/>
    </clipPath>
  </defs>
  <rect id="Icons_Filled_Menu_background" data-name="Icons / Filled / Menu background" width="24" height="24" fill="rgba(0,0,0,0)"/>
  <path id="Path-2" data-name="Path" d="M2.822,8.571,9.008,2.09a1.266,1.266,0,0,0,0-1.732,1.132,1.132,0,0,0-1.653,0L.342,7.706a1.266,1.266,0,0,0,0,1.732l7.013,7.347a1.132,1.132,0,0,0,1.653,0,1.266,1.266,0,0,0,0-1.732Z" transform="translate(7.714 3.429)"/>
</svg>
